<?xml version="1.0" encoding="UTF-8" standalone="no"?>
<!DOCTYPE svg PUBLIC "-//W3C//DTD SVG 1.1//EN"
 "http://www.w3.org/Graphics/SVG/1.1/DTD/svg11.dtd">
<!-- Generated by graphviz version 2.26.3 (20100126.1600)
 -->
<!-- Title: controllers_diagram Pages: 1 -->
<svg width="1072pt" height="768pt"
 viewBox="0.00 0.00 1072.00 767.54" xmlns="http://www.w3.org/2000/svg" xmlns:xlink="http://www.w3.org/1999/xlink">
<g id="graph1" class="graph" transform="scale(1 1) rotate(0) translate(4 763.538)">
<title>controllers_diagram</title>
<polygon fill="white" stroke="white" points="-4,5 -4,-763.538 1069,-763.538 1069,5 -4,5"/>
<!-- _diagram_info -->
<g id="node1" class="node"><title>_diagram_info</title>
<text text-anchor="start" x="821" y="-78.3" font-family="Times Roman,serif" font-size="13.00">Controllers diagram</text>
<text text-anchor="start" x="821" y="-61.3" font-family="Times Roman,serif" font-size="13.00">Date: Nov 13 2013 &#45; 05:42</text>
<text text-anchor="start" x="821" y="-44.3" font-family="Times Roman,serif" font-size="13.00">Migration version: 20131109015631</text>
<text text-anchor="start" x="821" y="-27.3" font-family="Times Roman,serif" font-size="13.00">Generated by RailRoady 1.1.1</text>
<text text-anchor="start" x="821" y="-10.3" font-family="Times Roman,serif" font-size="13.00">http://railroady.prestonlee.com</text>
</g>
<!-- ApplicationController -->
<g id="node2" class="node"><title>ApplicationController</title>
<polyline fill="none" stroke="black" points="228.451,-358.39 451.451,-358.39 "/>
<path fill="none" stroke="black" d="M451.451,-358.39C457.451,-358.39 463.451,-364.39 463.451,-370.39"/>
<polyline fill="none" stroke="black" points="463.451,-370.39 463.451,-448.39 "/>
<path fill="none" stroke="black" d="M463.451,-448.39C463.451,-454.39 457.451,-460.39 451.451,-460.39"/>
<polyline fill="none" stroke="black" points="451.451,-460.39 228.451,-460.39 "/>
<path fill="none" stroke="black" d="M228.451,-460.39C222.451,-460.39 216.451,-454.39 216.451,-448.39"/>
<polyline fill="none" stroke="black" points="216.451,-448.39 216.451,-370.39 "/>
<path fill="none" stroke="black" d="M216.451,-370.39C216.451,-364.39 222.451,-358.39 228.451,-358.39"/>
<text text-anchor="middle" x="339.951" y="-443.79" font-family="Times Roman,serif" font-size="14.00">ApplicationController</text>
<polyline fill="none" stroke="black" points="216.451,-434.39 463.451,-434.39 "/>
<text text-anchor="start" x="224.451" y="-417.79" font-family="Times Roman,serif" font-size="14.00">_one_time_conditions_valid_138?</text>
<polyline fill="none" stroke="black" points="216.451,-408.39 463.451,-408.39 "/>
<polyline fill="none" stroke="black" points="216.451,-384.39 463.451,-384.39 "/>
<text text-anchor="start" x="224.451" y="-367.79" font-family="Times Roman,serif" font-size="14.00">_layout</text>
</g>
<!-- AttachmentsController -->
<g id="node3" class="node"><title>AttachmentsController</title>
<polyline fill="none" stroke="black" points="534.764,-304.277 684.764,-304.277 "/>
<path fill="none" stroke="black" d="M684.764,-304.277C690.764,-304.277 696.764,-310.277 696.764,-316.277"/>
<polyline fill="none" stroke="black" points="696.764,-316.277 696.764,-502.277 "/>
<path fill="none" stroke="black" d="M696.764,-502.277C696.764,-508.277 690.764,-514.277 684.764,-514.277"/>
<polyline fill="none" stroke="black" points="684.764,-514.277 534.764,-514.277 "/>
<path fill="none" stroke="black" d="M534.764,-514.277C528.764,-514.277 522.764,-508.277 522.764,-502.277"/>
<polyline fill="none" stroke="black" points="522.764,-502.277 522.764,-316.277 "/>
<path fill="none" stroke="black" d="M522.764,-316.277C522.764,-310.277 528.764,-304.277 534.764,-304.277"/>
<text text-anchor="middle" x="609.764" y="-497.677" font-family="Times Roman,serif" font-size="14.00">AttachmentsController</text>
<polyline fill="none" stroke="black" points="522.764,-488.277 696.764,-488.277 "/>
<text text-anchor="start" x="530.764" y="-471.677" font-family="Times Roman,serif" font-size="14.00">create</text>
<text text-anchor="start" x="530.764" y="-453.677" font-family="Times Roman,serif" font-size="14.00">destroy</text>
<text text-anchor="start" x="530.764" y="-435.677" font-family="Times Roman,serif" font-size="14.00">edit</text>
<text text-anchor="start" x="530.764" y="-417.677" font-family="Times Roman,serif" font-size="14.00">index</text>
<text text-anchor="start" x="530.764" y="-399.677" font-family="Times Roman,serif" font-size="14.00">new</text>
<text text-anchor="start" x="530.764" y="-381.677" font-family="Times Roman,serif" font-size="14.00">show</text>
<text text-anchor="start" x="530.764" y="-363.677" font-family="Times Roman,serif" font-size="14.00">update</text>
<polyline fill="none" stroke="black" points="522.764,-354.277 696.764,-354.277 "/>
<polyline fill="none" stroke="black" points="522.764,-330.277 696.764,-330.277 "/>
<text text-anchor="start" x="530.764" y="-313.677" font-family="Times Roman,serif" font-size="14.00">_layout</text>
</g>
<!-- ApplicationController&#45;&gt;AttachmentsController -->
<g id="edge2" class="edge"><title>ApplicationController&#45;&gt;AttachmentsController</title>
<path fill="none" stroke="black" d="M463.802,-409.338C483.612,-409.33 503.743,-409.322 522.469,-409.314"/>
</g>
<!-- HomeController -->
<g id="node4" class="node"><title>HomeController</title>
<polyline fill="none" stroke="black" points="314.152,-114.724 415.152,-114.724 "/>
<path fill="none" stroke="black" d="M415.152,-114.724C421.152,-114.724 427.152,-120.724 427.152,-126.724"/>
<polyline fill="none" stroke="black" points="427.152,-126.724 427.152,-204.724 "/>
<path fill="none" stroke="black" d="M427.152,-204.724C427.152,-210.724 421.152,-216.724 415.152,-216.724"/>
<polyline fill="none" stroke="black" points="415.152,-216.724 314.152,-216.724 "/>
<path fill="none" stroke="black" d="M314.152,-216.724C308.152,-216.724 302.152,-210.724 302.152,-204.724"/>
<polyline fill="none" stroke="black" points="302.152,-204.724 302.152,-126.724 "/>
<path fill="none" stroke="black" d="M302.152,-126.724C302.152,-120.724 308.152,-114.724 314.152,-114.724"/>
<text text-anchor="middle" x="364.652" y="-200.124" font-family="Times Roman,serif" font-size="14.00">HomeController</text>
<polyline fill="none" stroke="black" points="302.152,-190.724 427.152,-190.724 "/>
<text text-anchor="start" x="310.152" y="-174.124" font-family="Times Roman,serif" font-size="14.00">index</text>
<polyline fill="none" stroke="black" points="302.152,-164.724 427.152,-164.724 "/>
<polyline fill="none" stroke="black" points="302.152,-140.724 427.152,-140.724 "/>
<text text-anchor="start" x="310.152" y="-124.124" font-family="Times Roman,serif" font-size="14.00">_layout</text>
</g>
<!-- ApplicationController&#45;&gt;HomeController -->
<g id="edge4" class="edge"><title>ApplicationController&#45;&gt;HomeController</title>
<path fill="none" stroke="black" d="M345.129,-358.31C349.345,-316.723 355.267,-258.306 359.48,-216.737"/>
</g>
<!-- CounterOrdersController -->
<g id="node5" class="node"><title>CounterOrdersController</title>
<polyline fill="none" stroke="black" points="42.387,-487.386 206.387,-487.386 "/>
<path fill="none" stroke="black" d="M206.387,-487.386C212.387,-487.386 218.387,-493.386 218.387,-499.386"/>
<polyline fill="none" stroke="black" points="218.387,-499.386 218.387,-685.386 "/>
<path fill="none" stroke="black" d="M218.387,-685.386C218.387,-691.386 212.387,-697.386 206.387,-697.386"/>
<polyline fill="none" stroke="black" points="206.387,-697.386 42.387,-697.386 "/>
<path fill="none" stroke="black" d="M42.387,-697.386C36.387,-697.386 30.387,-691.386 30.387,-685.386"/>
<polyline fill="none" stroke="black" points="30.387,-685.386 30.387,-499.386 "/>
<path fill="none" stroke="black" d="M30.387,-499.386C30.387,-493.386 36.387,-487.386 42.387,-487.386"/>
<text text-anchor="middle" x="124.387" y="-680.786" font-family="Times Roman,serif" font-size="14.00">CounterOrdersController</text>
<polyline fill="none" stroke="black" points="30.387,-671.386 218.387,-671.386 "/>
<text text-anchor="start" x="38.387" y="-654.786" font-family="Times Roman,serif" font-size="14.00">create</text>
<text text-anchor="start" x="38.387" y="-636.786" font-family="Times Roman,serif" font-size="14.00">destroy</text>
<text text-anchor="start" x="38.387" y="-618.786" font-family="Times Roman,serif" font-size="14.00">edit</text>
<text text-anchor="start" x="38.387" y="-600.786" font-family="Times Roman,serif" font-size="14.00">index</text>
<text text-anchor="start" x="38.387" y="-582.786" font-family="Times Roman,serif" font-size="14.00">new</text>
<text text-anchor="start" x="38.387" y="-564.786" font-family="Times Roman,serif" font-size="14.00">show</text>
<text text-anchor="start" x="38.387" y="-546.786" font-family="Times Roman,serif" font-size="14.00">update</text>
<polyline fill="none" stroke="black" points="30.387,-537.386 218.387,-537.386 "/>
<polyline fill="none" stroke="black" points="30.387,-513.386 218.387,-513.386 "/>
<text text-anchor="start" x="38.387" y="-496.786" font-family="Times Roman,serif" font-size="14.00">_layout</text>
</g>
<!-- ApplicationController&#45;&gt;CounterOrdersController -->
<g id="edge6" class="edge"><title>ApplicationController&#45;&gt;CounterOrdersController</title>
<path fill="none" stroke="black" d="M279.618,-460.608C260.685,-476.68 239.313,-494.823 218.618,-512.391"/>
</g>
<!-- OriginalOrdersController -->
<g id="node6" class="node"><title>OriginalOrdersController</title>
<polyline fill="none" stroke="black" points="539.366,-540.092 701.366,-540.092 "/>
<path fill="none" stroke="black" d="M701.366,-540.092C707.366,-540.092 713.366,-546.092 713.366,-552.092"/>
<polyline fill="none" stroke="black" points="713.366,-552.092 713.366,-738.092 "/>
<path fill="none" stroke="black" d="M713.366,-738.092C713.366,-744.092 707.366,-750.092 701.366,-750.092"/>
<polyline fill="none" stroke="black" points="701.366,-750.092 539.366,-750.092 "/>
<path fill="none" stroke="black" d="M539.366,-750.092C533.366,-750.092 527.366,-744.092 527.366,-738.092"/>
<polyline fill="none" stroke="black" points="527.366,-738.092 527.366,-552.092 "/>
<path fill="none" stroke="black" d="M527.366,-552.092C527.366,-546.092 533.366,-540.092 539.366,-540.092"/>
<text text-anchor="middle" x="620.366" y="-733.492" font-family="Times Roman,serif" font-size="14.00">OriginalOrdersController</text>
<polyline fill="none" stroke="black" points="527.366,-724.092 713.366,-724.092 "/>
<text text-anchor="start" x="535.366" y="-707.492" font-family="Times Roman,serif" font-size="14.00">create</text>
<text text-anchor="start" x="535.366" y="-689.492" font-family="Times Roman,serif" font-size="14.00">destroy</text>
<text text-anchor="start" x="535.366" y="-671.492" font-family="Times Roman,serif" font-size="14.00">edit</text>
<text text-anchor="start" x="535.366" y="-653.492" font-family="Times Roman,serif" font-size="14.00">index</text>
<text text-anchor="start" x="535.366" y="-635.492" font-family="Times Roman,serif" font-size="14.00">new</text>
<text text-anchor="start" x="535.366" y="-617.492" font-family="Times Roman,serif" font-size="14.00">show</text>
<text text-anchor="start" x="535.366" y="-599.492" font-family="Times Roman,serif" font-size="14.00">update</text>
<polyline fill="none" stroke="black" points="527.366,-590.092 713.366,-590.092 "/>
<polyline fill="none" stroke="black" points="527.366,-566.092 713.366,-566.092 "/>
<text text-anchor="start" x="535.366" y="-549.492" font-family="Times Roman,serif" font-size="14.00">_layout</text>
</g>
<!-- ApplicationController&#45;&gt;OriginalOrdersController -->
<g id="edge8" class="edge"><title>ApplicationController&#45;&gt;OriginalOrdersController</title>
<path fill="none" stroke="black" d="M400.797,-460.534C437.764,-491.607 485.707,-531.905 527.358,-566.915"/>
</g>
<!-- MenusController -->
<g id="node7" class="node"><title>MenusController</title>
<polyline fill="none" stroke="black" points="310.881,-548.038 417.881,-548.038 "/>
<path fill="none" stroke="black" d="M417.881,-548.038C423.881,-548.038 429.881,-554.038 429.881,-560.038"/>
<polyline fill="none" stroke="black" points="429.881,-560.038 429.881,-746.038 "/>
<path fill="none" stroke="black" d="M429.881,-746.038C429.881,-752.038 423.881,-758.038 417.881,-758.038"/>
<polyline fill="none" stroke="black" points="417.881,-758.038 310.881,-758.038 "/>
<path fill="none" stroke="black" d="M310.881,-758.038C304.881,-758.038 298.881,-752.038 298.881,-746.038"/>
<polyline fill="none" stroke="black" points="298.881,-746.038 298.881,-560.038 "/>
<path fill="none" stroke="black" d="M298.881,-560.038C298.881,-554.038 304.881,-548.038 310.881,-548.038"/>
<text text-anchor="middle" x="364.381" y="-741.438" font-family="Times Roman,serif" font-size="14.00">MenusController</text>
<polyline fill="none" stroke="black" points="298.881,-732.038 429.881,-732.038 "/>
<text text-anchor="start" x="306.881" y="-715.438" font-family="Times Roman,serif" font-size="14.00">create</text>
<text text-anchor="start" x="306.881" y="-697.438" font-family="Times Roman,serif" font-size="14.00">destroy</text>
<text text-anchor="start" x="306.881" y="-679.438" font-family="Times Roman,serif" font-size="14.00">edit</text>
<text text-anchor="start" x="306.881" y="-661.438" font-family="Times Roman,serif" font-size="14.00">index</text>
<text text-anchor="start" x="306.881" y="-643.438" font-family="Times Roman,serif" font-size="14.00">new</text>
<text text-anchor="start" x="306.881" y="-625.438" font-family="Times Roman,serif" font-size="14.00">show</text>
<text text-anchor="start" x="306.881" y="-607.438" font-family="Times Roman,serif" font-size="14.00">update</text>
<polyline fill="none" stroke="black" points="298.881,-598.038 429.881,-598.038 "/>
<polyline fill="none" stroke="black" points="298.881,-574.038 429.881,-574.038 "/>
<text text-anchor="start" x="306.881" y="-557.438" font-family="Times Roman,serif" font-size="14.00">_layout</text>
</g>
<!-- ApplicationController&#45;&gt;MenusController -->
<g id="edge10" class="edge"><title>ApplicationController&#45;&gt;MenusController</title>
<path fill="none" stroke="black" d="M345.072,-460.467C347.619,-485.863 350.795,-517.537 353.831,-547.817"/>
</g>
<!-- UsersController -->
<g id="node8" class="node"><title>UsersController</title>
<polyline fill="none" stroke="black" points="13,-139.122 236,-139.122 "/>
<path fill="none" stroke="black" d="M236,-139.122C242,-139.122 248,-145.122 248,-151.122"/>
<polyline fill="none" stroke="black" points="248,-151.122 248,-301.122 "/>
<path fill="none" stroke="black" d="M248,-301.122C248,-307.122 242,-313.122 236,-313.122"/>
<polyline fill="none" stroke="black" points="236,-313.122 13,-313.122 "/>
<path fill="none" stroke="black" d="M13,-313.122C7,-313.122 1,-307.122 1,-301.122"/>
<polyline fill="none" stroke="black" points="1,-301.122 1,-151.122 "/>
<path fill="none" stroke="black" d="M1,-151.122C1,-145.122 7,-139.122 13,-139.122"/>
<text text-anchor="middle" x="124.5" y="-296.522" font-family="Times Roman,serif" font-size="14.00">UsersController</text>
<polyline fill="none" stroke="black" points="1,-287.122 248,-287.122 "/>
<text text-anchor="start" x="9" y="-270.522" font-family="Times Roman,serif" font-size="14.00">_one_time_conditions_valid_212?</text>
<text text-anchor="start" x="9" y="-252.522" font-family="Times Roman,serif" font-size="14.00">destroy</text>
<text text-anchor="start" x="9" y="-234.522" font-family="Times Roman,serif" font-size="14.00">index</text>
<text text-anchor="start" x="9" y="-216.522" font-family="Times Roman,serif" font-size="14.00">show</text>
<text text-anchor="start" x="9" y="-198.522" font-family="Times Roman,serif" font-size="14.00">update</text>
<polyline fill="none" stroke="black" points="1,-189.122 248,-189.122 "/>
<polyline fill="none" stroke="black" points="1,-165.122 248,-165.122 "/>
<text text-anchor="start" x="9" y="-148.522" font-family="Times Roman,serif" font-size="14.00">_layout</text>
</g>
<!-- ApplicationController&#45;&gt;UsersController -->
<g id="edge12" class="edge"><title>ApplicationController&#45;&gt;UsersController</title>
<path fill="none" stroke="black" d="M279.936,-358.34C263.5,-344.359 245.208,-328.799 227.108,-313.403"/>
</g>
<!-- DishesController -->
<g id="node9" class="node"><title>DishesController</title>
<polyline fill="none" stroke="black" points="508.99,-59.5 731.99,-59.5 "/>
<path fill="none" stroke="black" d="M731.99,-59.5C737.99,-59.5 743.99,-65.5 743.99,-71.5"/>
<polyline fill="none" stroke="black" points="743.99,-71.5 743.99,-275.5 "/>
<path fill="none" stroke="black" d="M743.99,-275.5C743.99,-281.5 737.99,-287.5 731.99,-287.5"/>
<polyline fill="none" stroke="black" points="731.99,-287.5 508.99,-287.5 "/>
<path fill="none" stroke="black" d="M508.99,-287.5C502.99,-287.5 496.99,-281.5 496.99,-275.5"/>
<polyline fill="none" stroke="black" points="496.99,-275.5 496.99,-71.5 "/>
<path fill="none" stroke="black" d="M496.99,-71.5C496.99,-65.5 502.99,-59.5 508.99,-59.5"/>
<text text-anchor="middle" x="620.49" y="-270.9" font-family="Times Roman,serif" font-size="14.00">DishesController</text>
<polyline fill="none" stroke="black" points="496.99,-261.5 743.99,-261.5 "/>
<text text-anchor="start" x="504.99" y="-244.9" font-family="Times Roman,serif" font-size="14.00">_one_time_conditions_valid_248?</text>
<text text-anchor="start" x="504.99" y="-226.9" font-family="Times Roman,serif" font-size="14.00">create</text>
<text text-anchor="start" x="504.99" y="-208.9" font-family="Times Roman,serif" font-size="14.00">destroy</text>
<text text-anchor="start" x="504.99" y="-190.9" font-family="Times Roman,serif" font-size="14.00">edit</text>
<text text-anchor="start" x="504.99" y="-172.9" font-family="Times Roman,serif" font-size="14.00">index</text>
<text text-anchor="start" x="504.99" y="-154.9" font-family="Times Roman,serif" font-size="14.00">new</text>
<text text-anchor="start" x="504.99" y="-136.9" font-family="Times Roman,serif" font-size="14.00">show</text>
<text text-anchor="start" x="504.99" y="-118.9" font-family="Times Roman,serif" font-size="14.00">update</text>
<polyline fill="none" stroke="black" points="496.99,-109.5 743.99,-109.5 "/>
<polyline fill="none" stroke="black" points="496.99,-85.5 743.99,-85.5 "/>
<text text-anchor="start" x="504.99" y="-68.9" font-family="Times Roman,serif" font-size="14.00">_layout</text>
</g>
<!-- ApplicationController&#45;&gt;DishesController -->
<g id="edge14" class="edge"><title>ApplicationController&#45;&gt;DishesController</title>
<path fill="none" stroke="black" d="M400.823,-358.206C429.025,-334.493 463.61,-305.411 496.921,-277.402"/>
</g>
</g>
</svg>
