<?xml version="1.0" encoding="UTF-8" standalone="no"?>
<!DOCTYPE svg PUBLIC "-//W3C//DTD SVG 1.1//EN"
 "http://www.w3.org/Graphics/SVG/1.1/DTD/svg11.dtd">
<!-- Generated by graphviz version 2.26.3 (20100126.1600)
 -->
<!-- Title: models_diagram Pages: 1 -->
<svg width="1094pt" height="1240pt"
 viewBox="0.00 0.00 1093.54 1240.00" xmlns="http://www.w3.org/2000/svg" xmlns:xlink="http://www.w3.org/1999/xlink">
<g id="graph1" class="graph" transform="scale(1 1) rotate(0) translate(4 1236)">
<title>models_diagram</title>
<polygon fill="white" stroke="white" points="-4,5 -4,-1236 1090.54,-1236 1090.54,5 -4,5"/>
<!-- _diagram_info -->
<g id="node1" class="node"><title>_diagram_info</title>
<text text-anchor="start" x="180.541" y="-1215.8" font-family="Times Roman,serif" font-size="13.00">Models diagram</text>
<text text-anchor="start" x="180.541" y="-1198.8" font-family="Times Roman,serif" font-size="13.00">Date: Nov 13 2013 &#45; 05:42</text>
<text text-anchor="start" x="180.541" y="-1181.8" font-family="Times Roman,serif" font-size="13.00">Migration version: 20131109015631</text>
<text text-anchor="start" x="180.541" y="-1164.8" font-family="Times Roman,serif" font-size="13.00">Generated by RailRoady 1.1.1</text>
<text text-anchor="start" x="180.541" y="-1147.8" font-family="Times Roman,serif" font-size="13.00">http://railroady.prestonlee.com</text>
</g>
<!-- User -->
<g id="node2" class="node"><title>User</title>
<polyline fill="none" stroke="black" points="429.541,-741 659.541,-741 "/>
<path fill="none" stroke="black" d="M659.541,-741C665.541,-741 671.541,-747 671.541,-753"/>
<polyline fill="none" stroke="black" points="671.541,-753 671.541,-1087 "/>
<path fill="none" stroke="black" d="M671.541,-1087C671.541,-1093 665.541,-1099 659.541,-1099"/>
<polyline fill="none" stroke="black" points="659.541,-1099 429.541,-1099 "/>
<path fill="none" stroke="black" d="M429.541,-1099C423.541,-1099 417.541,-1093 417.541,-1087"/>
<polyline fill="none" stroke="black" points="417.541,-1087 417.541,-753 "/>
<path fill="none" stroke="black" d="M417.541,-753C417.541,-747 423.541,-741 429.541,-741"/>
<text text-anchor="middle" x="544.541" y="-1082.4" font-family="Times Roman,serif" font-size="14.00">User</text>
<polyline fill="none" stroke="black" points="417.541,-1073 671.541,-1073 "/>
<text text-anchor="start" x="425.541" y="-1056.4" font-family="Times Roman,serif" font-size="14.00">id :integer</text>
<text text-anchor="start" x="425.541" y="-1038.4" font-family="Times Roman,serif" font-size="14.00">email :string</text>
<text text-anchor="start" x="425.541" y="-1020.4" font-family="Times Roman,serif" font-size="14.00">encrypted_password :string</text>
<text text-anchor="start" x="425.541" y="-1002.4" font-family="Times Roman,serif" font-size="14.00">reset_password_token :string</text>
<text text-anchor="start" x="425.541" y="-984.4" font-family="Times Roman,serif" font-size="14.00">reset_password_sent_at :datetime</text>
<text text-anchor="start" x="425.541" y="-966.4" font-family="Times Roman,serif" font-size="14.00">remember_created_at :datetime</text>
<text text-anchor="start" x="425.541" y="-948.4" font-family="Times Roman,serif" font-size="14.00">sign_in_count :integer</text>
<text text-anchor="start" x="425.541" y="-930.4" font-family="Times Roman,serif" font-size="14.00">current_sign_in_at :datetime</text>
<text text-anchor="start" x="425.541" y="-912.4" font-family="Times Roman,serif" font-size="14.00">last_sign_in_at :datetime</text>
<text text-anchor="start" x="425.541" y="-894.4" font-family="Times Roman,serif" font-size="14.00">current_sign_in_ip :string</text>
<text text-anchor="start" x="425.541" y="-876.4" font-family="Times Roman,serif" font-size="14.00">last_sign_in_ip :string</text>
<text text-anchor="start" x="425.541" y="-858.4" font-family="Times Roman,serif" font-size="14.00">created_at :datetime</text>
<text text-anchor="start" x="425.541" y="-840.4" font-family="Times Roman,serif" font-size="14.00">updated_at :datetime</text>
<text text-anchor="start" x="425.541" y="-822.4" font-family="Times Roman,serif" font-size="14.00">name :string</text>
<text text-anchor="start" x="425.541" y="-804.4" font-family="Times Roman,serif" font-size="14.00">confirmation_token :string</text>
<text text-anchor="start" x="425.541" y="-786.4" font-family="Times Roman,serif" font-size="14.00">confirmed_at :datetime</text>
<text text-anchor="start" x="425.541" y="-768.4" font-family="Times Roman,serif" font-size="14.00">confirmation_sent_at :datetime</text>
<text text-anchor="start" x="425.541" y="-750.4" font-family="Times Roman,serif" font-size="14.00">unconfirmed_email :string</text>
</g>
<!-- OriginalOrder -->
<g id="node4" class="node"><title>OriginalOrder</title>
<polyline fill="none" stroke="black" points="114.041,-435 285.041,-435 "/>
<path fill="none" stroke="black" d="M285.041,-435C291.041,-435 297.041,-441 297.041,-447"/>
<polyline fill="none" stroke="black" points="297.041,-447 297.041,-673 "/>
<path fill="none" stroke="black" d="M297.041,-673C297.041,-679 291.041,-685 285.041,-685"/>
<polyline fill="none" stroke="black" points="285.041,-685 114.041,-685 "/>
<path fill="none" stroke="black" d="M114.041,-685C108.041,-685 102.041,-679 102.041,-673"/>
<polyline fill="none" stroke="black" points="102.041,-673 102.041,-447 "/>
<path fill="none" stroke="black" d="M102.041,-447C102.041,-441 108.041,-435 114.041,-435"/>
<text text-anchor="middle" x="199.541" y="-668.4" font-family="Times Roman,serif" font-size="14.00">OriginalOrder</text>
<polyline fill="none" stroke="black" points="102.041,-659 297.041,-659 "/>
<text text-anchor="start" x="110.041" y="-642.4" font-family="Times Roman,serif" font-size="14.00">id :integer</text>
<text text-anchor="start" x="110.041" y="-624.4" font-family="Times Roman,serif" font-size="14.00">user_id :integer</text>
<text text-anchor="start" x="110.041" y="-606.4" font-family="Times Roman,serif" font-size="14.00">winner_id :integer</text>
<text text-anchor="start" x="110.041" y="-588.4" font-family="Times Roman,serif" font-size="14.00">g_weight :integer</text>
<text text-anchor="start" x="110.041" y="-570.4" font-family="Times Roman,serif" font-size="14.00">desired_price :integer</text>
<text text-anchor="start" x="110.041" y="-552.4" font-family="Times Roman,serif" font-size="14.00">expiration_date :datetime</text>
<text text-anchor="start" x="110.041" y="-534.4" font-family="Times Roman,serif" font-size="14.00">delivery_date :datetime</text>
<text text-anchor="start" x="110.041" y="-516.4" font-family="Times Roman,serif" font-size="14.00">notes :text</text>
<text text-anchor="start" x="110.041" y="-498.4" font-family="Times Roman,serif" font-size="14.00">delivery_type :string</text>
<text text-anchor="start" x="110.041" y="-480.4" font-family="Times Roman,serif" font-size="14.00">created_at :datetime</text>
<text text-anchor="start" x="110.041" y="-462.4" font-family="Times Roman,serif" font-size="14.00">updated_at :datetime</text>
<text text-anchor="start" x="110.041" y="-444.4" font-family="Times Roman,serif" font-size="14.00">menu_id :integer</text>
</g>
<!-- User&#45;&gt;OriginalOrder -->
<g id="edge8" class="edge"><title>User&#45;&gt;OriginalOrder</title>
<path fill="none" stroke="#f01bc2" d="M410.836,-765.252C397.986,-755.645 384.508,-747.033 370.541,-740 315.691,-712.379 278.59,-763.739 233.541,-722 225.063,-714.145 218.41,-704.759 213.217,-694.518"/>
<ellipse fill="none" stroke="#f01bc2" cx="414.325" cy="-767.929" rx="4.00002" ry="4.00002"/>
<polygon fill="#f01bc2" stroke="#f01bc2" points="213.169,-694.414 213.115,-683.448 211.095,-689.864 209.02,-685.315 209.02,-685.315 209.02,-685.315 211.095,-689.864 204.926,-687.182 213.169,-694.414 213.169,-694.414"/>
</g>
<!-- User&#45;&gt;OriginalOrder -->
<g id="edge12" class="edge"><title>User&#45;&gt;OriginalOrder</title>
<path fill="none" stroke="#07a10f" d="M409.572,-767.121C397.019,-757.116 383.954,-747.902 370.541,-740 343.975,-724.349 328.433,-740.197 303.541,-722 292.142,-713.666 281.673,-703.671 272.137,-692.789"/>
<polygon fill="#07a10f" stroke="#07a10f" points="409.575,-767.123 414.474,-776.933 413.448,-770.285 417.32,-773.448 417.32,-773.448 417.32,-773.448 413.448,-770.285 420.167,-769.962 409.575,-767.123 409.575,-767.123"/>
<polygon fill="#07a10f" stroke="#07a10f" points="272.124,-692.774 269.127,-682.226 268.904,-688.949 265.684,-685.124 265.684,-685.124 265.684,-685.124 268.904,-688.949 262.241,-688.022 272.124,-692.774 272.124,-692.774"/>
<text text-anchor="middle" x="352.041" y="-709.4" font-family="Times Roman,serif" font-size="14.00">bidded_orders</text>
</g>
<!-- Notification -->
<g id="node5" class="node"><title>Notification</title>
<polyline fill="none" stroke="black" points="584.041,-498 725.041,-498 "/>
<path fill="none" stroke="black" d="M725.041,-498C731.041,-498 737.041,-504 737.041,-510"/>
<polyline fill="none" stroke="black" points="737.041,-510 737.041,-610 "/>
<path fill="none" stroke="black" d="M737.041,-610C737.041,-616 731.041,-622 725.041,-622"/>
<polyline fill="none" stroke="black" points="725.041,-622 584.041,-622 "/>
<path fill="none" stroke="black" d="M584.041,-622C578.041,-622 572.041,-616 572.041,-610"/>
<polyline fill="none" stroke="black" points="572.041,-610 572.041,-510 "/>
<path fill="none" stroke="black" d="M572.041,-510C572.041,-504 578.041,-498 584.041,-498"/>
<text text-anchor="middle" x="654.541" y="-605.4" font-family="Times Roman,serif" font-size="14.00">Notification</text>
<polyline fill="none" stroke="black" points="572.041,-596 737.041,-596 "/>
<text text-anchor="start" x="580.041" y="-579.4" font-family="Times Roman,serif" font-size="14.00">id :integer</text>
<text text-anchor="start" x="580.041" y="-561.4" font-family="Times Roman,serif" font-size="14.00">user_id :integer</text>
<text text-anchor="start" x="580.041" y="-543.4" font-family="Times Roman,serif" font-size="14.00">content :string</text>
<text text-anchor="start" x="580.041" y="-525.4" font-family="Times Roman,serif" font-size="14.00">created_at :datetime</text>
<text text-anchor="start" x="580.041" y="-507.4" font-family="Times Roman,serif" font-size="14.00">updated_at :datetime</text>
</g>
<!-- User&#45;&gt;Notification -->
<g id="edge14" class="edge"><title>User&#45;&gt;Notification</title>
<path fill="none" stroke="#d94e9e" d="M601.743,-732.793C612.716,-696.884 623.571,-661.358 632.559,-631.943"/>
<ellipse fill="none" stroke="#d94e9e" cx="600.469" cy="-736.966" rx="4.00001" ry="4.00001"/>
<polygon fill="#d94e9e" stroke="#d94e9e" points="632.61,-631.774 639.836,-623.525 634.072,-626.992 635.533,-622.21 635.533,-622.21 635.533,-622.21 634.072,-626.992 631.229,-620.895 632.61,-631.774 632.61,-631.774"/>
</g>
<!-- CounterOrder -->
<g id="node7" class="node"><title>CounterOrder</title>
<polyline fill="none" stroke="black" points="116.541,-165 282.541,-165 "/>
<path fill="none" stroke="black" d="M282.541,-165C288.541,-165 294.541,-171 294.541,-177"/>
<polyline fill="none" stroke="black" points="294.541,-177 294.541,-367 "/>
<path fill="none" stroke="black" d="M294.541,-367C294.541,-373 288.541,-379 282.541,-379"/>
<polyline fill="none" stroke="black" points="282.541,-379 116.541,-379 "/>
<path fill="none" stroke="black" d="M116.541,-379C110.541,-379 104.541,-373 104.541,-367"/>
<polyline fill="none" stroke="black" points="104.541,-367 104.541,-177 "/>
<path fill="none" stroke="black" d="M104.541,-177C104.541,-171 110.541,-165 116.541,-165"/>
<text text-anchor="middle" x="199.541" y="-362.4" font-family="Times Roman,serif" font-size="14.00">CounterOrder</text>
<polyline fill="none" stroke="black" points="104.541,-353 294.541,-353 "/>
<text text-anchor="start" x="112.541" y="-336.4" font-family="Times Roman,serif" font-size="14.00">id :integer</text>
<text text-anchor="start" x="112.541" y="-318.4" font-family="Times Roman,serif" font-size="14.00">user_id :integer</text>
<text text-anchor="start" x="112.541" y="-300.4" font-family="Times Roman,serif" font-size="14.00">original_order_id :integer</text>
<text text-anchor="start" x="112.541" y="-282.4" font-family="Times Roman,serif" font-size="14.00">g_weight :integer</text>
<text text-anchor="start" x="112.541" y="-264.4" font-family="Times Roman,serif" font-size="14.00">desired_price :integer</text>
<text text-anchor="start" x="112.541" y="-246.4" font-family="Times Roman,serif" font-size="14.00">delivery_date :datetime</text>
<text text-anchor="start" x="112.541" y="-228.4" font-family="Times Roman,serif" font-size="14.00">notes :text</text>
<text text-anchor="start" x="112.541" y="-210.4" font-family="Times Roman,serif" font-size="14.00">delivery_type :string</text>
<text text-anchor="start" x="112.541" y="-192.4" font-family="Times Roman,serif" font-size="14.00">created_at :datetime</text>
<text text-anchor="start" x="112.541" y="-174.4" font-family="Times Roman,serif" font-size="14.00">updated_at :datetime</text>
</g>
<!-- User&#45;&gt;CounterOrder -->
<g id="edge10" class="edge"><title>User&#45;&gt;CounterOrder</title>
<path fill="none" stroke="#2b371b" d="M434.78,-734.818C424.083,-723.548 412.662,-713.106 400.541,-704 379.302,-688.042 360.804,-706.194 343.541,-686 269.944,-599.904 345.923,-539.823 305.541,-434 299.632,-418.512 292.064,-402.979 283.698,-387.993"/>
<ellipse fill="none" stroke="#2b371b" cx="437.589" cy="-737.85" rx="4.00002" ry="4.00002"/>
<polygon fill="#2b371b" stroke="#2b371b" points="283.654,-387.916 282.591,-377.002 281.17,-383.577 278.686,-379.238 278.686,-379.238 278.686,-379.238 281.17,-383.577 274.781,-381.473 283.654,-387.916 283.654,-387.916"/>
</g>
<!-- Role -->
<g id="node8" class="node"><title>Role</title>
<polyline fill="none" stroke="black" points="766.041,-489 907.041,-489 "/>
<path fill="none" stroke="black" d="M907.041,-489C913.041,-489 919.041,-495 919.041,-501"/>
<polyline fill="none" stroke="black" points="919.041,-501 919.041,-619 "/>
<path fill="none" stroke="black" d="M919.041,-619C919.041,-625 913.041,-631 907.041,-631"/>
<polyline fill="none" stroke="black" points="907.041,-631 766.041,-631 "/>
<path fill="none" stroke="black" d="M766.041,-631C760.041,-631 754.041,-625 754.041,-619"/>
<polyline fill="none" stroke="black" points="754.041,-619 754.041,-501 "/>
<path fill="none" stroke="black" d="M754.041,-501C754.041,-495 760.041,-489 766.041,-489"/>
<text text-anchor="middle" x="836.541" y="-614.4" font-family="Times Roman,serif" font-size="14.00">Role</text>
<polyline fill="none" stroke="black" points="754.041,-605 919.041,-605 "/>
<text text-anchor="start" x="762.041" y="-588.4" font-family="Times Roman,serif" font-size="14.00">id :integer</text>
<text text-anchor="start" x="762.041" y="-570.4" font-family="Times Roman,serif" font-size="14.00">name :string</text>
<text text-anchor="start" x="762.041" y="-552.4" font-family="Times Roman,serif" font-size="14.00">resource_id :integer</text>
<text text-anchor="start" x="762.041" y="-534.4" font-family="Times Roman,serif" font-size="14.00">resource_type :string</text>
<text text-anchor="start" x="762.041" y="-516.4" font-family="Times Roman,serif" font-size="14.00">created_at :datetime</text>
<text text-anchor="start" x="762.041" y="-498.4" font-family="Times Roman,serif" font-size="14.00">updated_at :datetime</text>
</g>
<!-- User&#45;&gt;Role -->
<g id="edge2" class="edge"><title>User&#45;&gt;Role</title>
<path fill="none" stroke="#62d84d" d="M678.393,-767.907C701.195,-740.946 724.343,-712.891 745.541,-686 757.278,-671.113 769.425,-654.907 780.875,-639.228"/>
<polygon fill="#62d84d" stroke="#62d84d" points="678.12,-768.229 668.221,-772.947 674.887,-772.043 671.653,-775.857 671.653,-775.857 671.653,-775.857 674.887,-772.043 675.086,-778.767 678.12,-768.229 678.12,-768.229"/>
<polygon fill="#62d84d" stroke="#62d84d" points="780.914,-639.176 790.433,-633.733 783.854,-635.131 786.793,-631.087 786.793,-631.087 786.793,-631.087 783.854,-635.131 783.154,-628.441 780.914,-639.176 780.914,-639.176"/>
</g>
<!-- Dish -->
<g id="node9" class="node"><title>Dish</title>
<polyline fill="none" stroke="black" points="364.041,-489 505.041,-489 "/>
<path fill="none" stroke="black" d="M505.041,-489C511.041,-489 517.041,-495 517.041,-501"/>
<polyline fill="none" stroke="black" points="517.041,-501 517.041,-619 "/>
<path fill="none" stroke="black" d="M517.041,-619C517.041,-625 511.041,-631 505.041,-631"/>
<polyline fill="none" stroke="black" points="505.041,-631 364.041,-631 "/>
<path fill="none" stroke="black" d="M364.041,-631C358.041,-631 352.041,-625 352.041,-619"/>
<polyline fill="none" stroke="black" points="352.041,-619 352.041,-501 "/>
<path fill="none" stroke="black" d="M352.041,-501C352.041,-495 358.041,-489 364.041,-489"/>
<text text-anchor="middle" x="434.541" y="-614.4" font-family="Times Roman,serif" font-size="14.00">Dish</text>
<polyline fill="none" stroke="black" points="352.041,-605 517.041,-605 "/>
<text text-anchor="start" x="360.041" y="-588.4" font-family="Times Roman,serif" font-size="14.00">id :integer</text>
<text text-anchor="start" x="360.041" y="-570.4" font-family="Times Roman,serif" font-size="14.00">name :string</text>
<text text-anchor="start" x="360.041" y="-552.4" font-family="Times Roman,serif" font-size="14.00">created_at :datetime</text>
<text text-anchor="start" x="360.041" y="-534.4" font-family="Times Roman,serif" font-size="14.00">updated_at :datetime</text>
<text text-anchor="start" x="360.041" y="-516.4" font-family="Times Roman,serif" font-size="14.00">user_id :integer</text>
<text text-anchor="start" x="360.041" y="-498.4" font-family="Times Roman,serif" font-size="14.00">menu_id :integer</text>
</g>
<!-- User&#45;&gt;Dish -->
<g id="edge6" class="edge"><title>User&#45;&gt;Dish</title>
<path fill="none" stroke="#fb53aa" d="M487.412,-733.031C477.476,-700.515 467.634,-668.302 459.183,-640.646"/>
<ellipse fill="none" stroke="#fb53aa" cx="488.614" cy="-736.966" rx="4.00001" ry="4.00001"/>
<polygon fill="#fb53aa" stroke="#fb53aa" points="459.177,-640.625 460.558,-629.746 457.716,-635.843 456.255,-631.061 456.255,-631.061 456.255,-631.061 457.716,-635.843 451.951,-632.376 459.177,-640.625 459.177,-640.625"/>
</g>
<!-- Attachment -->
<g id="node10" class="node"><title>Attachment</title>
<polyline fill="none" stroke="black" points="448.041,-183 589.041,-183 "/>
<path fill="none" stroke="black" d="M589.041,-183C595.041,-183 601.041,-189 601.041,-195"/>
<polyline fill="none" stroke="black" points="601.041,-195 601.041,-349 "/>
<path fill="none" stroke="black" d="M601.041,-349C601.041,-355 595.041,-361 589.041,-361"/>
<polyline fill="none" stroke="black" points="589.041,-361 448.041,-361 "/>
<path fill="none" stroke="black" d="M448.041,-361C442.041,-361 436.041,-355 436.041,-349"/>
<polyline fill="none" stroke="black" points="436.041,-349 436.041,-195 "/>
<path fill="none" stroke="black" d="M436.041,-195C436.041,-189 442.041,-183 448.041,-183"/>
<text text-anchor="middle" x="518.541" y="-344.4" font-family="Times Roman,serif" font-size="14.00">Attachment</text>
<polyline fill="none" stroke="black" points="436.041,-335 601.041,-335 "/>
<text text-anchor="start" x="444.041" y="-318.4" font-family="Times Roman,serif" font-size="14.00">id :integer</text>
<text text-anchor="start" x="444.041" y="-300.4" font-family="Times Roman,serif" font-size="14.00">uploader_id :integer</text>
<text text-anchor="start" x="444.041" y="-282.4" font-family="Times Roman,serif" font-size="14.00">url :string</text>
<text text-anchor="start" x="444.041" y="-264.4" font-family="Times Roman,serif" font-size="14.00">filename :string</text>
<text text-anchor="start" x="444.041" y="-246.4" font-family="Times Roman,serif" font-size="14.00">size :integer</text>
<text text-anchor="start" x="444.041" y="-228.4" font-family="Times Roman,serif" font-size="14.00">filetype :string</text>
<text text-anchor="start" x="444.041" y="-210.4" font-family="Times Roman,serif" font-size="14.00">created_at :datetime</text>
<text text-anchor="start" x="444.041" y="-192.4" font-family="Times Roman,serif" font-size="14.00">updated_at :datetime</text>
</g>
<!-- User&#45;&gt;Attachment -->
<g id="edge4" class="edge"><title>User&#45;&gt;Attachment</title>
<path fill="none" stroke="#fd1493" d="M545.005,-732.695C544.138,-633.169 541.287,-508.821 533.541,-398 532.933,-389.298 532.154,-380.274 531.272,-371.234"/>
<ellipse fill="none" stroke="#fd1493" cx="545.038" cy="-736.726" rx="4" ry="4"/>
<polygon fill="#fd1493" stroke="#fd1493" points="531.247,-370.988 534.712,-360.584 530.741,-366.014 530.236,-361.039 530.236,-361.039 530.236,-361.039 530.741,-366.014 525.759,-361.494 531.247,-370.988 531.247,-370.988"/>
</g>
<!-- Menu -->
<g id="node3" class="node"><title>Menu</title>
<polyline fill="none" stroke="black" points="209.041,-867 350.041,-867 "/>
<path fill="none" stroke="black" d="M350.041,-867C356.041,-867 362.041,-873 362.041,-879"/>
<polyline fill="none" stroke="black" points="362.041,-879 362.041,-961 "/>
<path fill="none" stroke="black" d="M362.041,-961C362.041,-967 356.041,-973 350.041,-973"/>
<polyline fill="none" stroke="black" points="350.041,-973 209.041,-973 "/>
<path fill="none" stroke="black" d="M209.041,-973C203.041,-973 197.041,-967 197.041,-961"/>
<polyline fill="none" stroke="black" points="197.041,-961 197.041,-879 "/>
<path fill="none" stroke="black" d="M197.041,-879C197.041,-873 203.041,-867 209.041,-867"/>
<text text-anchor="middle" x="279.541" y="-956.4" font-family="Times Roman,serif" font-size="14.00">Menu</text>
<polyline fill="none" stroke="black" points="197.041,-947 362.041,-947 "/>
<text text-anchor="start" x="205.041" y="-930.4" font-family="Times Roman,serif" font-size="14.00">id :integer</text>
<text text-anchor="start" x="205.041" y="-912.4" font-family="Times Roman,serif" font-size="14.00">name :string</text>
<text text-anchor="start" x="205.041" y="-894.4" font-family="Times Roman,serif" font-size="14.00">created_at :datetime</text>
<text text-anchor="start" x="205.041" y="-876.4" font-family="Times Roman,serif" font-size="14.00">updated_at :datetime</text>
</g>
<!-- Menu&#45;&gt;OriginalOrder -->
<g id="edge20" class="edge"><title>Menu&#45;&gt;OriginalOrder</title>
<path fill="none" stroke="#24dbcd" d="M252.677,-859.465C236.876,-820.919 218.161,-769.479 208.541,-722 206.775,-713.282 205.308,-704.25 204.092,-695.114"/>
<ellipse fill="none" stroke="#24dbcd" cx="254.265" cy="-863.302" rx="4.00002" ry="4.00002"/>
<polygon fill="#24dbcd" stroke="#24dbcd" points="204.09,-695.095 207.336,-684.62 203.48,-690.132 202.87,-685.169 202.87,-685.169 202.87,-685.169 203.48,-690.132 198.403,-685.718 204.09,-695.095 204.09,-695.095"/>
</g>
<!-- Menu&#45;&gt;Dish -->
<g id="edge18" class="edge"><title>Menu&#45;&gt;Dish</title>
<path fill="none" stroke="#e8f478" d="M305.645,-859.372C331.52,-799.274 371.314,-706.85 399.839,-640.598"/>
<ellipse fill="none" stroke="#e8f478" cx="303.994" cy="-863.207" rx="4.00002" ry="4.00002"/>
<polygon fill="#e8f478" stroke="#e8f478" points="400.009,-640.205 408.096,-632.8 401.986,-635.613 403.963,-631.02 403.963,-631.02 403.963,-631.02 401.986,-635.613 399.83,-629.241 400.009,-640.205 400.009,-640.205"/>
</g>
<!-- OriginalOrder&#45;&gt;CounterOrder -->
<g id="edge24" class="edge"><title>OriginalOrder&#45;&gt;CounterOrder</title>
<path fill="none" stroke="#b48f00" d="M199.541,-426.664C199.541,-414.278 199.541,-401.785 199.541,-389.556"/>
<ellipse fill="none" stroke="#b48f00" cx="199.541" cy="-430.935" rx="4" ry="4"/>
<polygon fill="#b48f00" stroke="#b48f00" points="199.542,-389.354 204.041,-379.354 199.541,-384.354 199.541,-379.354 199.541,-379.354 199.541,-379.354 199.541,-384.354 195.041,-379.354 199.542,-389.354 199.542,-389.354"/>
</g>
<!-- DishAttachment -->
<g id="node6" class="node"><title>DishAttachment</title>
<polyline fill="none" stroke="black" points="443.041,-1 594.041,-1 "/>
<path fill="none" stroke="black" d="M594.041,-1C600.041,-1 606.041,-7 606.041,-13"/>
<polyline fill="none" stroke="black" points="606.041,-13 606.041,-113 "/>
<path fill="none" stroke="black" d="M606.041,-113C606.041,-119 600.041,-125 594.041,-125"/>
<polyline fill="none" stroke="black" points="594.041,-125 443.041,-125 "/>
<path fill="none" stroke="black" d="M443.041,-125C437.041,-125 431.041,-119 431.041,-113"/>
<polyline fill="none" stroke="black" points="431.041,-113 431.041,-13 "/>
<path fill="none" stroke="black" d="M431.041,-13C431.041,-7 437.041,-1 443.041,-1"/>
<text text-anchor="middle" x="518.541" y="-108.4" font-family="Times Roman,serif" font-size="14.00">DishAttachment</text>
<polyline fill="none" stroke="black" points="431.041,-99 606.041,-99 "/>
<text text-anchor="start" x="439.041" y="-82.4" font-family="Times Roman,serif" font-size="14.00">id :integer</text>
<text text-anchor="start" x="439.041" y="-64.4" font-family="Times Roman,serif" font-size="14.00">dish_id :integer</text>
<text text-anchor="start" x="439.041" y="-46.4" font-family="Times Roman,serif" font-size="14.00">attachment_id :integer</text>
<text text-anchor="start" x="439.041" y="-28.4" font-family="Times Roman,serif" font-size="14.00">created_at :datetime</text>
<text text-anchor="start" x="439.041" y="-10.4" font-family="Times Roman,serif" font-size="14.00">updated_at :datetime</text>
</g>
<!-- Dish&#45;&gt;DishAttachment -->
<g id="edge36" class="edge"><title>Dish&#45;&gt;DishAttachment</title>
<path fill="none" stroke="#5c23f0" d="M394.686,-481.287C385.366,-455.289 378.827,-425.879 381.541,-398 391.812,-292.508 380.133,-258.797 427.541,-164 432.861,-153.363 439.613,-143 447.026,-133.216"/>
<ellipse fill="none" stroke="#5c23f0" cx="396.123" cy="-485.134" rx="4.00001" ry="4.00001"/>
<polygon fill="#5c23f0" stroke="#5c23f0" points="447.201,-132.993 456.926,-127.925 450.296,-129.066 453.392,-125.139 453.392,-125.139 453.392,-125.139 450.296,-129.066 449.857,-122.354 447.201,-132.993 447.201,-132.993"/>
</g>
<!-- Dish&#45;&gt;Attachment -->
<g id="edge38" class="edge"><title>Dish&#45;&gt;Attachment</title>
<path fill="none" stroke="#caeff8" d="M458.126,-479.137C467.916,-445.573 479.37,-406.302 489.657,-371.031"/>
<polygon fill="#caeff8" stroke="#caeff8" points="458.106,-479.209 450.985,-487.549 456.706,-484.009 455.305,-488.809 455.305,-488.809 455.305,-488.809 456.706,-484.009 459.625,-490.069 458.106,-479.209 458.106,-479.209"/>
<polygon fill="#caeff8" stroke="#caeff8" points="489.726,-370.797 496.846,-362.457 491.126,-365.997 492.526,-361.197 492.526,-361.197 492.526,-361.197 491.126,-365.997 488.206,-359.937 489.726,-370.797 489.726,-370.797"/>
<text text-anchor="middle" x="506.041" y="-403.4" font-family="Times Roman,serif" font-size="14.00">photos</text>
</g>
<!-- Attachment&#45;&gt;DishAttachment -->
<g id="edge42" class="edge"><title>Attachment&#45;&gt;DishAttachment</title>
<path fill="none" stroke="#d18f75" d="M518.541,-174.533C518.541,-160.61 518.541,-146.52 518.541,-133.258"/>
<ellipse fill="none" stroke="#d18f75" cx="518.541" cy="-178.759" rx="4" ry="4"/>
<ellipse fill="#d18f75" stroke="#d18f75" cx="518.541" cy="-129.116" rx="4" ry="4"/>
</g>
<!-- Attachment&#45;&gt;Dish -->
<g id="edge44" class="edge"><title>Attachment&#45;&gt;Dish</title>
<path fill="none" stroke="#38caf8" d="M429.91,-340.284C413.881,-357.25 399.446,-376.739 390.541,-398 379.526,-424.301 383.357,-454.162 392.296,-481.019"/>
<ellipse fill="none" stroke="#38caf8" cx="433.091" cy="-337.015" rx="4.00002" ry="4.00002"/>
<ellipse fill="#38caf8" stroke="#38caf8" cx="393.747" cy="-485.109" rx="4.00001" ry="4.00001"/>
<text text-anchor="middle" x="431.541" y="-403.4" font-family="Times Roman,serif" font-size="14.00">parent_dish</text>
</g>
<!-- Ability -->
<g id="node11" class="node"><title>Ability</title>
<polygon fill="none" stroke="black" points="1012.54,-894 1012.54,-946 1072.54,-946 1072.54,-894 1012.54,-894"/>
<text text-anchor="middle" x="1042.54" y="-929.4" font-family="Times Roman,serif" font-size="14.00">Ability</text>
<polyline fill="none" stroke="black" points="1012.54,-920 1072.54,-920 "/>
<text text-anchor="middle" x="1042.54" y="-903.4" font-family="Times Roman,serif" font-size="14.00"> </text>
</g>
<!-- ActiveRecord::Base -->
<g id="node19" class="node"><title>ActiveRecord::Base</title>
<ellipse fill="none" stroke="black" cx="544.541" cy="-1185" rx="104.151" ry="18.3848"/>
<text text-anchor="middle" x="544.541" y="-1181.4" font-family="Times Roman,serif" font-size="14.00">ActiveRecord::Base</text>
</g>
<!-- ActiveRecord::Base&#45;&gt;User -->
<g id="edge16" class="edge"><title>ActiveRecord::Base&#45;&gt;User</title>
<path fill="none" stroke="black" d="M544.541,-1166.37C544.541,-1150.64 544.541,-1126.36 544.541,-1099.07"/>
</g>
<!-- ActiveRecord::Base&#45;&gt;Menu -->
<g id="edge22" class="edge"><title>ActiveRecord::Base&#45;&gt;Menu</title>
<path fill="none" stroke="black" d="M505.376,-1167.77C483.772,-1158.5 456.367,-1147.13 431.541,-1138 407.007,-1128.97 395.245,-1137.18 375.541,-1120 331.418,-1081.52 305.848,-1018.23 292.353,-973.154"/>
</g>
<!-- ActiveRecord::Base&#45;&gt;OriginalOrder -->
<g id="edge26" class="edge"><title>ActiveRecord::Base&#45;&gt;OriginalOrder</title>
<path fill="none" stroke="black" d="M508.939,-1167.61C487.073,-1157.59 458.23,-1145.52 431.541,-1138 378.934,-1123.18 224.079,-1141.53 188.541,-1100 91.6021,-986.723 119.323,-805.848 154.248,-685.042"/>
</g>
<!-- ActiveRecord::Base&#45;&gt;Notification -->
<g id="edge28" class="edge"><title>ActiveRecord::Base&#45;&gt;Notification</title>
<path fill="none" stroke="black" d="M593.394,-1168.6C624.401,-1155.36 662.05,-1133.36 680.541,-1100 765.853,-946.076 712.249,-727.948 677.454,-622.236"/>
</g>
<!-- ActiveRecord::Base&#45;&gt;DishAttachment -->
<g id="edge30" class="edge"><title>ActiveRecord::Base&#45;&gt;DishAttachment</title>
<path fill="none" stroke="black" d="M621.308,-1172.42C706.538,-1157.24 837.407,-1130.02 877.541,-1100 952.068,-1044.26 984.541,-1013.07 984.541,-920 984.541,-920 984.541,-920 984.541,-272 984.541,-189.983 741.181,-117.36 606.192,-83.3852"/>
</g>
<!-- ActiveRecord::Base&#45;&gt;CounterOrder -->
<g id="edge32" class="edge"><title>ActiveRecord::Base&#45;&gt;CounterOrder</title>
<path fill="none" stroke="black" d="M510.364,-1167.51C488.423,-1157.12 458.996,-1144.7 431.541,-1138 363.471,-1121.4 164.576,-1152.82 118.541,-1100 -76.073,-876.696 8.92415,-717.865 93.5414,-434 99.1103,-415.318 107.597,-396.786 117.393,-379.295"/>
</g>
<!-- ActiveRecord::Base&#45;&gt;Role -->
<g id="edge34" class="edge"><title>ActiveRecord::Base&#45;&gt;Role</title>
<path fill="none" stroke="black" d="M606.711,-1169.99C644.607,-1157.56 690.751,-1135.96 717.541,-1100 822.785,-958.735 838.294,-742.536 838.637,-631.409"/>
</g>
<!-- ActiveRecord::Base&#45;&gt;Dish -->
<g id="edge40" class="edge"><title>ActiveRecord::Base&#45;&gt;Dish</title>
<path fill="none" stroke="black" d="M495.689,-1168.6C464.682,-1155.36 427.033,-1133.36 408.541,-1100 365.032,-1021.5 401.043,-758.908 422.043,-631.096"/>
</g>
<!-- ActiveRecord::Base&#45;&gt;Attachment -->
<g id="edge46" class="edge"><title>ActiveRecord::Base&#45;&gt;Attachment</title>
<path fill="none" stroke="black" d="M630.429,-1174.55C682.732,-1163.96 747.38,-1142.68 789.541,-1100 895.763,-992.476 1012.49,-559.014 927.541,-434 854.57,-326.61 698.153,-290.409 601.296,-278.205"/>
</g>
<!-- Object -->
<g id="node36" class="node"><title>Object</title>
<ellipse fill="none" stroke="black" cx="1042.54" cy="-1185" rx="43.1335" ry="18.3848"/>
<text text-anchor="middle" x="1042.54" y="-1181.4" font-family="Times Roman,serif" font-size="14.00">Object</text>
</g>
<!-- Object&#45;&gt;Ability -->
<g id="edge48" class="edge"><title>Object&#45;&gt;Ability</title>
<path fill="none" stroke="black" d="M1042.54,-1166.37C1042.54,-1120.07 1042.54,-999.691 1042.54,-946.236"/>
</g>
</g>
</svg>
