<?xml version="1.0" encoding="UTF-8" standalone="no"?>
<!DOCTYPE svg PUBLIC "-//W3C//DTD SVG 1.1//EN"
 "http://www.w3.org/Graphics/SVG/1.1/DTD/svg11.dtd">
<!-- Generated by graphviz version 2.26.3 (20100126.1600)
 -->
<!-- Title: models_diagram Pages: 1 -->
<svg width="800pt" height="438pt"
 viewBox="0.00 0.00 800.00 438.00" xmlns="http://www.w3.org/2000/svg" xmlns:xlink="http://www.w3.org/1999/xlink">
<g id="graph1" class="graph" transform="scale(1 1) rotate(0) translate(4 434)">
<title>models_diagram</title>
<polygon fill="white" stroke="white" points="-4,5 -4,-434 797,-434 797,5 -4,5"/>
<!-- _diagram_info -->
<g id="node1" class="node"><title>_diagram_info</title>
<text text-anchor="start" x="8" y="-413.8" font-family="Times Roman,serif" font-size="13.00">Models diagram</text>
<text text-anchor="start" x="8" y="-396.8" font-family="Times Roman,serif" font-size="13.00">Date: Nov 13 2013 &#45; 05:42</text>
<text text-anchor="start" x="8" y="-379.8" font-family="Times Roman,serif" font-size="13.00">Migration version: 20131109015631</text>
<text text-anchor="start" x="8" y="-362.8" font-family="Times Roman,serif" font-size="13.00">Generated by RailRoady 1.1.1</text>
<text text-anchor="start" x="8" y="-345.8" font-family="Times Roman,serif" font-size="13.00">http://railroady.prestonlee.com</text>
</g>
<!-- User -->
<g id="node2" class="node"><title>User</title>
<ellipse fill="none" stroke="black" cx="372" cy="-279" rx="33.9411" ry="18.3848"/>
<text text-anchor="middle" x="372" y="-275.4" font-family="Times Roman,serif" font-size="14.00">User</text>
</g>
<!-- OriginalOrder -->
<g id="node4" class="node"><title>OriginalOrder</title>
<ellipse fill="none" stroke="black" cx="145" cy="-187" rx="77.7817" ry="18.3848"/>
<text text-anchor="middle" x="145" y="-183.4" font-family="Times Roman,serif" font-size="14.00">OriginalOrder</text>
</g>
<!-- User&#45;&gt;OriginalOrder -->
<g id="edge8" class="edge"><title>User&#45;&gt;OriginalOrder</title>
<path fill="none" stroke="#ea30db" d="M332.981,-269.017C319.717,-265.845 304.768,-262.513 291,-260 260.793,-254.487 176.052,-263.367 154,-242 147.009,-235.226 144.123,-225.282 143.195,-215.705"/>
<ellipse fill="none" stroke="#ea30db" cx="337.109" cy="-270.019" rx="4.00001" ry="4.00001"/>
<polygon fill="#ea30db" stroke="#ea30db" points="143.192,-215.619 147.352,-205.473 143.024,-210.622 142.855,-205.625 142.855,-205.625 142.855,-205.625 143.024,-210.622 138.358,-205.777 143.192,-215.619 143.192,-215.619"/>
</g>
<!-- User&#45;&gt;OriginalOrder -->
<g id="edge12" class="edge"><title>User&#45;&gt;OriginalOrder</title>
<path fill="none" stroke="#8bdc25" d="M330.916,-269.116C288.864,-258.94 228.967,-244.257 224,-242 206.322,-233.966 188.416,-221.894 174.132,-211.105"/>
<polygon fill="#8bdc25" stroke="#8bdc25" points="330.928,-269.119 339.591,-275.842 335.788,-270.293 340.648,-271.468 340.648,-271.468 340.648,-271.468 335.788,-270.293 341.705,-267.093 330.928,-269.119 330.928,-269.119"/>
<polygon fill="#8bdc25" stroke="#8bdc25" points="174.077,-211.062 168.923,-201.383 170.123,-208.002 166.169,-204.941 166.169,-204.941 166.169,-204.941 170.123,-208.002 163.414,-208.5 174.077,-211.062 174.077,-211.062"/>
<text text-anchor="middle" x="272.5" y="-229.4" font-family="Times Roman,serif" font-size="14.00">bidded_orders</text>
</g>
<!-- Notification -->
<g id="node5" class="node"><title>Notification</title>
<ellipse fill="none" stroke="black" cx="476" cy="-187" rx="67.1751" ry="18.3848"/>
<text text-anchor="middle" x="476" y="-183.4" font-family="Times Roman,serif" font-size="14.00">Notification</text>
</g>
<!-- User&#45;&gt;Notification -->
<g id="edge14" class="edge"><title>User&#45;&gt;Notification</title>
<path fill="none" stroke="#bc10f4" d="M393.356,-256.25C403.277,-246.051 415.419,-234.078 427,-224 432.187,-219.487 437.871,-214.899 443.471,-210.561"/>
<ellipse fill="none" stroke="#bc10f4" cx="390.569" cy="-259.142" rx="4.00002" ry="4.00002"/>
<polygon fill="#bc10f4" stroke="#bc10f4" points="443.589,-210.471 454.273,-208.004 447.57,-207.446 451.551,-204.421 451.551,-204.421 451.551,-204.421 447.57,-207.446 448.828,-200.838 443.589,-210.471 443.589,-210.471"/>
</g>
<!-- CounterOrder -->
<g id="node7" class="node"><title>CounterOrder</title>
<ellipse fill="none" stroke="black" cx="145" cy="-95" rx="79.9031" ry="18.3848"/>
<text text-anchor="middle" x="145" y="-91.4" font-family="Times Roman,serif" font-size="14.00">CounterOrder</text>
</g>
<!-- User&#45;&gt;CounterOrder -->
<g id="edge10" class="edge"><title>User&#45;&gt;CounterOrder</title>
<path fill="none" stroke="#745095" d="M354.111,-255.258C345.113,-244.582 333.477,-232.5 321,-224 302.857,-211.639 293.735,-217.444 275,-206 253.235,-192.705 251.326,-184.643 232,-168 212.998,-151.636 191.402,-133.513 174.481,-119.418"/>
<ellipse fill="none" stroke="#745095" cx="356.825" cy="-258.581" rx="4.00002" ry="4.00002"/>
<polygon fill="#745095" stroke="#745095" points="174.27,-119.242 169.459,-109.388 170.425,-116.045 166.581,-112.848 166.581,-112.848 166.581,-112.848 170.425,-116.045 163.704,-116.308 174.27,-119.242 174.27,-119.242"/>
</g>
<!-- Role -->
<g id="node8" class="node"><title>Role</title>
<ellipse fill="none" stroke="black" cx="593" cy="-187" rx="32.0265" ry="18.3848"/>
<text text-anchor="middle" x="593" y="-183.4" font-family="Times Roman,serif" font-size="14.00">Role</text>
</g>
<!-- User&#45;&gt;Role -->
<g id="edge2" class="edge"><title>User&#45;&gt;Role</title>
<path fill="none" stroke="#175368" d="M409.678,-264.337C446.25,-249.96 503.227,-227.176 552,-206 554.186,-205.051 556.43,-204.06 558.688,-203.049"/>
<polygon fill="#175368" stroke="#175368" points="409.237,-264.51 398.284,-263.972 404.582,-266.336 399.927,-268.161 399.927,-268.161 399.927,-268.161 404.582,-266.336 401.57,-272.351 409.237,-264.51 409.237,-264.51"/>
<polygon fill="#175368" stroke="#175368" points="558.83,-202.985 569.796,-202.947 563.383,-200.918 567.935,-198.85 567.935,-198.85 567.935,-198.85 563.383,-200.918 566.074,-194.753 558.83,-202.985 558.83,-202.985"/>
</g>
<!-- Dish -->
<g id="node9" class="node"><title>Dish</title>
<ellipse fill="none" stroke="black" cx="317" cy="-187" rx="33.234" ry="18.3848"/>
<text text-anchor="middle" x="317" y="-183.4" font-family="Times Roman,serif" font-size="14.00">Dish</text>
</g>
<!-- User&#45;&gt;Dish -->
<g id="edge6" class="edge"><title>User&#45;&gt;Dish</title>
<path fill="none" stroke="#762258" d="M361.411,-253.566C357.079,-244.044 351.736,-233.289 346,-224 343.454,-219.877 340.529,-215.676 337.538,-211.655"/>
<ellipse fill="none" stroke="#762258" cx="363.035" cy="-257.23" rx="4.00002" ry="4.00002"/>
<polygon fill="#762258" stroke="#762258" points="337.529,-211.643 334.963,-200.982 334.467,-207.69 331.405,-203.737 331.405,-203.737 331.405,-203.737 334.467,-207.69 327.847,-206.493 337.529,-211.643 337.529,-211.643"/>
</g>
<!-- Attachment -->
<g id="node10" class="node"><title>Attachment</title>
<ellipse fill="none" stroke="black" cx="450" cy="-95" rx="68.7979" ry="18.3848"/>
<text text-anchor="middle" x="450" y="-91.4" font-family="Times Roman,serif" font-size="14.00">Attachment</text>
</g>
<!-- User&#45;&gt;Attachment -->
<g id="edge4" class="edge"><title>User&#45;&gt;Attachment</title>
<path fill="none" stroke="#9a54e2" d="M371.496,-252.122C372.519,-227.05 378.075,-190.265 400,-168 421.635,-146.03 448.238,-174.468 467,-150 473.112,-142.029 471.805,-131.84 467.962,-122.403"/>
<ellipse fill="none" stroke="#9a54e2" cx="371.401" cy="-256.139" rx="4" ry="4"/>
<polygon fill="#9a54e2" stroke="#9a54e2" points="467.903,-122.283 467.486,-111.325 465.679,-117.805 463.455,-113.327 463.455,-113.327 463.455,-113.327 465.679,-117.805 459.425,-115.328 467.903,-122.283 467.903,-122.283"/>
</g>
<!-- Menu -->
<g id="node3" class="node"><title>Menu</title>
<ellipse fill="none" stroke="black" cx="243" cy="-279" rx="38.8909" ry="18.3848"/>
<text text-anchor="middle" x="243" y="-275.4" font-family="Times Roman,serif" font-size="14.00">Menu</text>
</g>
<!-- Menu&#45;&gt;OriginalOrder -->
<g id="edge20" class="edge"><title>Menu&#45;&gt;OriginalOrder</title>
<path fill="none" stroke="#28f4d3" d="M198.898,-270.266C170.567,-263.657 137.526,-253.731 129,-242 123.229,-234.059 124.287,-224.065 127.766,-214.781"/>
<ellipse fill="none" stroke="#28f4d3" cx="202.838" cy="-271.157" rx="4.00001" ry="4.00001"/>
<polygon fill="#28f4d3" stroke="#28f4d3" points="127.873,-214.551 136.165,-207.374 129.978,-210.015 132.083,-205.48 132.083,-205.48 132.083,-205.48 129.978,-210.015 128.002,-203.585 127.873,-214.551 127.873,-214.551"/>
</g>
<!-- Menu&#45;&gt;Dish -->
<g id="edge18" class="edge"><title>Menu&#45;&gt;Dish</title>
<path fill="none" stroke="#6159f6" d="M262.197,-255.134C272.895,-241.833 286.201,-225.291 297.022,-211.837"/>
<ellipse fill="none" stroke="#6159f6" cx="259.426" cy="-258.579" rx="4.00002" ry="4.00002"/>
<polygon fill="#6159f6" stroke="#6159f6" points="297.126,-211.708 306.9,-206.737 300.26,-207.812 303.394,-203.916 303.394,-203.916 303.394,-203.916 300.26,-207.812 299.887,-201.096 297.126,-211.708 297.126,-211.708"/>
</g>
<!-- OriginalOrder&#45;&gt;CounterOrder -->
<g id="edge24" class="edge"><title>OriginalOrder&#45;&gt;CounterOrder</title>
<path fill="none" stroke="#b36802" d="M145,-160.029C145,-148.599 145,-135.267 145,-123.66"/>
<ellipse fill="none" stroke="#b36802" cx="145" cy="-164.382" rx="4" ry="4"/>
<polygon fill="#b36802" stroke="#b36802" points="145,-123.59 149.5,-113.59 145,-118.59 145,-113.59 145,-113.59 145,-113.59 145,-118.59 140.5,-113.59 145,-123.59 145,-123.59"/>
</g>
<!-- DishAttachment -->
<g id="node6" class="node"><title>DishAttachment</title>
<ellipse fill="none" stroke="black" cx="450" cy="-19" rx="91.2168" ry="18.3848"/>
<text text-anchor="middle" x="450" y="-15.4" font-family="Times Roman,serif" font-size="14.00">DishAttachment</text>
</g>
<!-- Dish&#45;&gt;DishAttachment -->
<g id="edge36" class="edge"><title>Dish&#45;&gt;DishAttachment</title>
<path fill="none" stroke="#1f125a" d="M302.715,-161.711C299.186,-152.126 297.534,-141.291 302,-132 322.311,-89.74 367.114,-59.0938 402.136,-40.4666"/>
<ellipse fill="none" stroke="#1f125a" cx="304.294" cy="-165.399" rx="4.00002" ry="4.00002"/>
<polygon fill="#1f125a" stroke="#1f125a" points="402.378,-40.3423 413.328,-39.7612 406.822,-38.0517 411.267,-35.7612 411.267,-35.7612 411.267,-35.7612 406.822,-38.0517 409.205,-31.7611 402.378,-40.3423 402.378,-40.3423"/>
</g>
<!-- Dish&#45;&gt;Attachment -->
<g id="edge38" class="edge"><title>Dish&#45;&gt;Attachment</title>
<path fill="none" stroke="#9b4bb4" d="M354.405,-173.118C368.4,-167.065 384.034,-159.228 397,-150 408.508,-141.809 419.616,-130.912 428.664,-120.979"/>
<polygon fill="#9b4bb4" stroke="#9b4bb4" points="354.264,-173.176 343.303,-172.864 349.648,-175.097 345.032,-177.018 345.032,-177.018 345.032,-177.018 349.648,-175.097 346.76,-181.173 354.264,-173.176 354.264,-173.176"/>
<polygon fill="#9b4bb4" stroke="#9b4bb4" points="428.831,-120.789 438.821,-116.266 432.139,-117.039 435.447,-113.289 435.447,-113.289 435.447,-113.289 432.139,-117.039 432.072,-110.312 428.831,-120.789 428.831,-120.789"/>
<text text-anchor="middle" x="441.5" y="-137.4" font-family="Times Roman,serif" font-size="14.00">photos</text>
</g>
<!-- Attachment&#45;&gt;DishAttachment -->
<g id="edge42" class="edge"><title>Attachment&#45;&gt;DishAttachment</title>
<path fill="none" stroke="#4025e9" d="M450,-68.0731C450,-60.8176 450,-52.972 450,-45.7275"/>
<ellipse fill="none" stroke="#4025e9" cx="450" cy="-72.2135" rx="4" ry="4"/>
<ellipse fill="#4025e9" stroke="#4025e9" cx="450" cy="-41.5704" rx="4" ry="4"/>
</g>
<!-- Attachment&#45;&gt;Dish -->
<g id="edge44" class="edge"><title>Attachment&#45;&gt;Dish</title>
<path fill="none" stroke="#22bc6b" d="M380.868,-105.345C350.663,-111.414 320.046,-120.232 311,-132 304.718,-140.172 304.757,-151.158 306.922,-161.162"/>
<ellipse fill="none" stroke="#22bc6b" cx="385.013" cy="-104.544" rx="4.00001" ry="4.00001"/>
<ellipse fill="#22bc6b" stroke="#22bc6b" cx="307.981" cy="-165.043" rx="4.00001" ry="4.00001"/>
<text text-anchor="middle" x="352" y="-137.4" font-family="Times Roman,serif" font-size="14.00">parent_dish</text>
</g>
<!-- Ability -->
<g id="node11" class="node"><title>Ability</title>
<polygon fill="none" stroke="black" points="779,-297 719,-297 719,-261 779,-261 779,-297"/>
<text text-anchor="middle" x="749" y="-275.4" font-family="Times Roman,serif" font-size="14.00">Ability</text>
</g>
<!-- ActiveRecord::Base -->
<g id="node19" class="node"><title>ActiveRecord::Base</title>
<ellipse fill="none" stroke="black" cx="372" cy="-383" rx="104.151" ry="18.3848"/>
<text text-anchor="middle" x="372" y="-379.4" font-family="Times Roman,serif" font-size="14.00">ActiveRecord::Base</text>
</g>
<!-- ActiveRecord::Base&#45;&gt;User -->
<g id="edge16" class="edge"><title>ActiveRecord::Base&#45;&gt;User</title>
<path fill="none" stroke="black" d="M372,-364.407C372,-345.594 372,-316.664 372,-297.783"/>
</g>
<!-- ActiveRecord::Base&#45;&gt;Menu -->
<g id="edge22" class="edge"><title>ActiveRecord::Base&#45;&gt;Menu</title>
<path fill="none" stroke="black" d="M349.53,-364.885C325.131,-345.214 286.52,-314.086 263.094,-295.2"/>
</g>
<!-- ActiveRecord::Base&#45;&gt;OriginalOrder -->
<g id="edge26" class="edge"><title>ActiveRecord::Base&#45;&gt;OriginalOrder</title>
<path fill="none" stroke="black" d="M329.539,-366.032C263.499,-338.597 141.587,-283.396 121,-242 115.062,-230.06 121.062,-216.31 128.547,-205.545"/>
</g>
<!-- ActiveRecord::Base&#45;&gt;Notification -->
<g id="edge28" class="edge"><title>ActiveRecord::Base&#45;&gt;Notification</title>
<path fill="none" stroke="black" d="M381.784,-364.561C401.606,-327.205 446.303,-242.967 466.166,-205.533"/>
</g>
<!-- ActiveRecord::Base&#45;&gt;DishAttachment -->
<g id="edge30" class="edge"><title>ActiveRecord::Base&#45;&gt;DishAttachment</title>
<path fill="none" stroke="black" d="M457.067,-372.248C551.566,-357.867 691,-328.295 691,-279 691,-279 691,-279 691,-95 691,-60.2319 598.616,-39.383 528.246,-28.5453"/>
</g>
<!-- ActiveRecord::Base&#45;&gt;CounterOrder -->
<g id="edge32" class="edge"><title>ActiveRecord::Base&#45;&gt;CounterOrder</title>
<path fill="none" stroke="black" d="M333.151,-365.723C311.525,-356.389 283.997,-344.973 259,-336 204.349,-316.382 182.322,-330.196 134,-298 89.8634,-268.593 75.9478,-255.907 58,-206 52.2847,-190.108 50.8624,-183.306 58,-168 69.3326,-143.697 93.1781,-124.614 113.043,-112.063"/>
</g>
<!-- ActiveRecord::Base&#45;&gt;Role -->
<g id="edge34" class="edge"><title>ActiveRecord::Base&#45;&gt;Role</title>
<path fill="none" stroke="black" d="M392.791,-364.561C435.986,-326.252 534.774,-238.639 575.229,-202.761"/>
</g>
<!-- ActiveRecord::Base&#45;&gt;Dish -->
<g id="edge40" class="edge"><title>ActiveRecord::Base&#45;&gt;Dish</title>
<path fill="none" stroke="black" d="M360.209,-364.575C350.143,-347.884 336.187,-322.261 329,-298 319.695,-266.592 317.446,-228.278 316.992,-205.864"/>
</g>
<!-- ActiveRecord::Base&#45;&gt;Attachment -->
<g id="edge46" class="edge"><title>ActiveRecord::Base&#45;&gt;Attachment</title>
<path fill="none" stroke="black" d="M421.102,-366.575C483.936,-342.557 589.919,-291.198 634,-206 663.144,-149.671 572.441,-119.205 508.211,-105.093"/>
</g>
<!-- Object -->
<g id="node36" class="node"><title>Object</title>
<ellipse fill="none" stroke="black" cx="749" cy="-383" rx="43.1335" ry="18.3848"/>
<text text-anchor="middle" x="749" y="-379.4" font-family="Times Roman,serif" font-size="14.00">Object</text>
</g>
<!-- Object&#45;&gt;Ability -->
<g id="edge48" class="edge"><title>Object&#45;&gt;Ability</title>
<path fill="none" stroke="black" d="M749,-364.407C749,-345.36 749,-315.943 749,-297.084"/>
</g>
</g>
</svg>
